<svg width="488" height="488" xmlns="http://www.w3.org/2000/svg" xmlns:xlink="http://www.w3.org/1999/xlink"><defs><path id="a" d="M0 .213h487.786V488H0z"/><path d="M.624 204.106c0 112.264 91.006 203.27 203.27 203.27 112.262 0 203.268-91.006 203.268-203.27C407.162 91.844 316.156.838 203.894.838 91.63.838.624 91.844.624 204.106" id="c"/><linearGradient x1="0%" y1="50%" y2="50%" id="d"><stop stop-color="#E32D4A" offset="0%"/><stop stop-color="#A92236" offset="100%"/></linearGradient></defs><g fill="none" fill-rule="evenodd"><g transform="translate(0 -.213)"><mask id="b" fill="#fff"><use xlink:href="#a"/></mask><path d="M243.893.213C109.195.213 0 109.408 0 244.107 0 378.805 109.195 488 243.893 488c134.7 0 243.893-109.195 243.893-243.893C487.786 109.408 378.592.213 243.893.213" fill="#000002" mask="url(#b)"/></g><path d="M243.893 31.31c-117.406 0-212.583 95.177-212.583 212.583 0 117.407 95.177 212.584 212.583 212.584 117.407 0 212.583-95.177 212.583-212.584 0-117.406-95.175-212.583-212.583-212.583" fill="#FEFEFE"/><g transform="translate(40 39.787)"><mask id="e" fill="#fff"><use xlink:href="#c"/></mask><path d="M.624 204.106c0 112.264 91.006 203.27 203.27 203.27 112.262 0 203.268-91.006 203.268-203.27C407.162 91.844 316.156.838 203.894.838 91.63.838.624 91.844.624 204.106" fill="url(#d)" mask="url(#e)"/></g><g fill="#FEFEFE"><path d="M125.153 222.726c0 1.002 0 1.733-.73 1.733H108.46c-2.24 0-4.926 1.002-2.56-10.402 3.652-17.332 10.31-30.565 13.686-35.672 5.385-8.119 5.566-7.89 5.566-.82v45.161zm-52.594 11.772c0 60.394 27.776 91.508 27.776 91.508l18.479-17.52s-4.153-10.853-9.713-25.777c-6.484-17.332-5.844-29.46-5.844-29.46h21.395v104.873L154.848 388V137.244c-2.052-4.516-19.746-22.627-19.746-22.627s-62.543 50.04-62.543 119.881zm204.133-73.813v166.643c0 9.073-1.643 18.793-11.676 18.793-10.082 0-12.044-10.993-12.044-18.473 0-7.486-.133-167.054-.133-167.054s-.501-18.563 12.268-18.563c12.043 0 11.585 15.008 11.585 18.654m28.24 166.643v-163.22c0-27.28-15.285-48.857-39.916-48.857-24.678 0-39.916 26.14-39.916 41.697v170.38c0 22.35 13.233 46.708 40.007 46.708 33.118 0 39.825-29.835 39.825-46.708"/><path d="M409.075 206.946c-5.977-26.46-17.428-40.327-17.428-40.327l-20.477 21.667s20.477 48.398 8.029 94.152c-12.364 45.754-20.895 47.716-20.895 47.716l-.228-146.522s.18-54.514.18-57.158c0-3.423.73-7.57-5.885-.96-7.94 7.938-24.951 23.085-24.951 23.085v211.66c0 2.102.592 3.424-5.017 6.847-9.72 5.88-32.708 18.61-45.12 22.167v27.004s59.397-11.084 100.636-62.676c32.43-43.472 45.433-87.856 31.156-146.655m-196.2 177.129c-8.391-3.876-6.93-20.436-6.93-20.436s-.96-167.095 2.185-215.083c12.092-70.758 89.002-37.682 89.002-37.682s15.552-19.753 16.922-21.075c-8.712-6.115-20.942-10.492-33.988-13.505-8.023-1.96-16.372-3.326-24.944-4.056-2.38-.23-4.751-.41-7.076-.598-8.892-.453-17.471.048-25.73 1.238-28.554 3.465-54.422 14.458-74.81 30.558l18.752 22.126c4.739-3.785 11.265-8.899 13.867-10.402 5.566-3.326 11.947-6.248 7.709-2.01-8.711 8.717-13.003 30.112-13.003 49.817V369.84c0 43.25 48.307 46.436 48.307 46.436V387.68s-1.866.23-10.263-3.604"/></g></g></svg>