<svg xmlns="http://www.w3.org/2000/svg" width="442.884" height="270.728" xmlns:v="https://vecta.io/nano"><g fill="#1b1f22"><path d="M213.384 189.055l1.557-1.061c9.825-5.465 17.433-13.167 23.016-22.884 1.223-2.129 2.237-4.38 3.34-6.578 1.687-3.359 3.943-6.033 8.077-6.571l2.517-6.201c.312-.78.693-1.4 1.921-.939-.82-.83-.986-1.455-.575-2.408l19.819-46.287c.09-.211.284-.378.425-.559l1.43.499c-1.254-2.228-.086-3.58.702-5.143 1.143-2.268 1.951-4.704 2.922-7.06.179-.433.452-.827.735-1.334l7.963 1.073.141-.661-7.36-1.797c.177-.613.257-1.151.478-1.623l24.063-51.371c1.12-2.372 2.446-4.705 4.027-6.791 4.204-5.544 9.748-5.904 14.819-1.143 2.306 2.166 3.975 4.801 5.35 7.617 4.869 9.968 7.082 20.498 6.581 31.589-.05 1.118-.122 2.239-.098 3.357.026 1.215-1.074 2.128-.5 3.624.43 1.12-.192 2.654-.385 3.997-.181 1.265-.384 2.529-.632 3.783-.263 1.332-.502 2.679-.907 3.972l-4.201 12.99c-.09.276-.291.516-.585 1.02l-.766-1.511-1.792.665 1.716.704c-.454 1.856-.626 3.872-1.423 5.599-4.758 10.308-11.221 19.492-18.669 27.889-.863-.122-1.56-.256-2.263-.311-.624-.049-1.254-.01-2.015-.01.065.473.058.78.153 1.053.863 2.487-.099 4.086-2.139 5.635-3.096 2.351-5.891 5.096-8.87 7.607-1.206 1.017-2.56 1.859-3.948 2.854-1.743.182-2.682-1.704-4.947-2.129l3.326 3.317-7.588 4.831c-.249.159-.544.344-.664.592-1.003 2.066-1.84 4.222-2.973 6.211-2.447 4.295-3.283 8.955-3.424 13.793-.013.44.455.899.715 1.34 2.588 4.389 6.088 6.158 11.007 5.149 2.228-.457 4.455-1.311 6.46-2.395 5.388-2.913 9.517-7.227 12.886-12.541l1.782 1.284c.167 2.695-.339 5.29.537 7.811.176.507.484 1.23.273 1.566-1.247 1.992-.634 3.741.361 5.581.581 1.074.106 2.168-.476 3.172s-1.473 1.925-.967 3.458l1.326-.363-.498 5.648c.998.783 1.336 1.719.967 3.211-.469 1.899-.652 3.931-.284 5.931.04.218.04.471-.031.677l-2.018 5.725c-.104.295-.33.678-.229.892.813 1.723-.171 3.431.095 5.18l-1.349-.166c-.628.879.044 1.267.487 1.662.816.727 1.048 1.497.598 2.549-.628 1.468-.521 1.674.813 2.325.633.309 1.287.576 2.175.969-.211-2.15.186-3.961 1.21-5.719.334-.574-.355-1.746-.58-2.643-.126-.501-.412-1.017-.36-1.498.148-1.389.201-1.383-.447-2.644.947-1.129 1.98-2.267 1.146-3.992-.145-.3.317-.851.364-1.299.055-.523.011-1.07-.088-1.588-.055-.289-.431-.531-.451-.81-.082-1.106 1.573-2.205.004-3.326.214-1.257.437-2.498 1.345-3.504.241-.268.45-.745.389-1.073-.228-1.221-.921-2.403-.155-3.665-1.1-.732-.634-2.006-1.009-2.996-.495-1.309-.456-2.538.581-3.788.884-1.066.992-2.387-.089-3.698-1.435-1.739-1.347-2.193-.187-4.028-.189-1.769-1.027-3.4.776-4.817.418-.328.487-1.57.232-2.194-.724-1.776-1.09-3.437.129-5.125.073-.1.032-.321-.02-.462s-.184-.242-.379-.482l-1.169.876c-.929-2.599.066-4.059 3.221-4.881l1.32-2.939c2.576-.542 4.932.871 7.44.964s5.003.4 7.646.626l.734-1.35c-5.337.355-10.182-.727-15.428-1.498l13.078-31.366c.377.11 1.708.013 2.022-.144l-1.136-1.802 3.927-8.997c.207-.459.709-.779 1.05-1.185.175-.208.477-.555.412-.681-.587-1.149.2-2.017.599-2.911l16.73-37.15c1.104-2.383 2.045-4.834 3.193-7.195 1.188-2.444 2.288-4.93 3.433-7.395l3.551-7.605 3.524-7.353c1.191-2.443 2.311-4.928 3.645-7.292 1.684-2.985 3.446-5.939 5.387-8.76.883-1.284 2.172-2.363 3.459-3.278 2.729-1.941 5.675-1.831 8.089.501 1.585 1.532 3.001 3.355 4.071 5.282 3.835 6.902 6.189 14.359 7.803 22.065 1.325 6.328 1.523 12.679.376 19.052-.515 2.858-1.483 5.553-3.064 8.011-2.205 3.428-5.829 5.319-10.463 3.131-.202-.095-.441-.113-.858-.214-5.08 7.904-9.53 16.197-14.255 24.682-.911-1.815.086-3.749-1.14-5.74-.745 2.412-.553 4.39-.3 6.257.178 1.314-.062 2.329-.637 3.404l-12.881 24.109-5.657 10.777c-.368.701-.759 1.39-1.329 2.432l-.588-2.261c-.356.603-.793.996-.741 1.309.437 2.637-.734 5.021-1.081 7.529-.218 1.577-.498 3.176-.444 4.755.129 3.808 2.427 6.558 6.053 7.77 1.758.588 3.378.433 4.758-.679 1.483-1.195 2.902-2.518 4.136-3.967 4.013-4.71 7.161-10.012 10.074-15.442l9.011-17.206c2.092-3.764 3.727-7.73 5.595-11.589 1.54-3.182 3.908-4.735 7.29-4.933 5.992-.349 11.135 1.805 15.624 5.604 1.391 1.177 2.6 2.602 3.733 4.04 1.512 1.92 1.382 2.219-.87 3.257-.238 1.748.659 2.858 2.329 4.017-.093-1.674-1.559-3.036-.173-4.414 2.732 3.534 1.689 10.868-1.548 12.801 0 .715.187 1.396-.035 1.894-.65 1.457-1.419 2.866-2.218 4.249l-17.757 30.722c-2.497 4.37-4.9 8.804-7.122 13.319-1.226 2.492-1.971 5.218-2.967 7.826-.44 1.153-.368 2.305.458 3.128.808.806 1.892.918 3.099.512 1.313-.442 2.731-.569 4.101-.848.143-.029.281-.135.399-.232 6.655-5.449 12.515-11.601 16.618-19.237 2.155-4.01 4.103-8.131 6.179-12.184.799-1.56 1.637-3.107 2.57-4.589.435-.69 1.14-1.21 2.103-1.587l-.875 13.52c2.184-1.974 3.269-3.989 3.465-6.246.251-2.896.061-5.83.061-8.77 2.401-.765 4.172-.106 5.327 2.05 1.034 1.931 1.255 4.02.607 6.051-.894 2.804-1.899 5.595-3.13 8.265-1.537 3.334-3.302 6.568-5.081 9.783-.502.907-1.4 1.594-2.385 2.678.084 1.234-.339 2.686-2.031 3.501-.234.113-.379.471-.5.744-1.665 3.74-4.605 6.452-7.338 9.384l-1.333-1.685-.429.161.491 2.771c-3.584 3.069-7.213 6.015-11.635 8.126-4.588 2.19-9.205 2.938-14.139 2.602-3.355-.229-6.153-1.577-8.344-4.148-1.8-2.112-2.977-4.556-3.645-7.219-1.078-4.296-1.422-8.656-.915-13.076l1.751-15.897c.033-.305.004-.618.004-1.255-1.629 1.413-2.953 2.788-4.494 3.846-2.227 1.528-4.509 3.05-6.955 4.165-3.044 1.388-5.533 1.252-9.909.225-.627-1.018-.343-2.044-.086-3.159.22-.954.046-1.999.046-3.04l-3.218 2.211-.214 3.047-2.922-1.632.75-1.617-2.004.969-2.909-3.192-4.764 9.292-1.531-.316.864 1.414-21.319 45.085-1.093-.196c-.034.177-.13.398-.076.444.969.832.484 1.697.109 2.586l-6.557 15.708c-1.311 3.34-2.298 6.806-3.451 10.209-.409 1.207-.735 2.472-1.341 3.576-2.263 4.122-7.347 4.651-10.453 1.119-2.157-2.453-2.675-5.388-2.274-8.531.802-6.278 2.251-12.422 4.063-18.473l6.854-22.176h1.548c.019-.226.1-.46.034-.515-.906-.746-.738-1.575-.378-2.552l6.623-18.254 1.25-3.496c-5.434 3.313-10.497 6.248-16.531 7.201l-.665-2.129-.56 2.365c-8.207.673-15.77-.306-21.211-8.009l-3.455 6.582c-.936 1.883-1.856 3.646-4.162 4.29-.708.198-1.676.912-1.61 2.519l2.91-2.439.427.324-2.71 5.432-3.103-1.406-.328.385 2.378 3.002-.787 1.812-10.951 24.516c-1.025 2.336-1.757 4.799-2.624 7.204-1.183 3.279-1.985 6.71-3.865 9.713-1.729.932-2.541 2.619-3.902 4.356 2.108-.702 2.833-1.606 3.849-4.408.102.514.389 1.075.275 1.535-.674 2.713-1.422 5.409-2.193 8.096-.196.684-.511 1.35-.866 1.969-2.283 3.984-7.204 4.553-10.316 1.175-2.286-2.481-2.795-5.489-2.387-8.72.905-7.161 2.613-14.157 4.812-21.006l11.378-34.105c.247-.738.497-1.476.617-2.33-7.42 5.989-15.266 11.115-24.438 13.933l-.971-2.28c-.047-.102-.268-.123-.702-.304l.829 2.92c-5.348 1.88-10.874 2.372-16.829 2.661l.942-1.17-1.218-1.96.326-.285.786.596 3.995-10.392 5.586-1.053.85 1.421c.513-2.025 2.024-2.19 3.342-2.693 2.233-.854 4.441-1.775 6.658-2.668-1.204 1.646-1.225 3.38.044 3.846l1.009-.524 1.258.871c1.164-.7 1.673-1.581 1.277-2.696-.387-1.089-1.392-1.442-2.474-1.512-.392-.031-.789.04-1.183.068zm24.944 27.794c.864.186 1.543.026 1.86-.922-.727-.939-1.294-.207-1.884.054.107-1.984.955-3.948.367-6.458-.521 1.372-.953 2.214-1.153 3.107-.267 1.193-.647 2.504.853 3.272l.016 1.002c-.862.57-.862.57-.134 1.403l.075-1.458zm53.254-91.483l.289.178c.337-.29.706-.551 1.006-.876 5.309-5.737 10.418-11.641 14.526-18.322 2.426-3.945 4.833-7.914 6.999-12.004 2.927-5.526 5.166-11.342 6.29-17.529.334-1.841.654-3.713-.132-5.69l-12.087 22.7c-.426-.63-.861-1.086-.787-1.193.868-1.262.251-3.112 1.797-4.16.665-.451.643-1.415.508-2.382-.419-2.99-.427-5.98 2.38-8.045 1.024-.754.273-1.55.152-2.023l2.282-2.227-1.408-2.61 1.248-1.715c-.545-.303-1.054-.811-1.405-.719-.376.099-.675.732-.875 1.19-.25.572-.379 1.199-.538 1.808-.641 2.458-2.012 4.739-1.807 7.408.008.1-.203.218-.334.349l-1.339-.184v4.612l-1.413.466c.682 2.62 1.04 5.134-1.422 6.44l-1.1 5.896 1.39 1.021c-.59.704-1.461 1.265-1.464 1.832-.013 1.869-1.08 2.885-2.608 3.761.857 1.298.407 2.357-.243 3.528l-8.924 16.43c-.361.667-.655 1.372-.981 2.06zm-8.996-11.835c-.083-.777.119-1.94-.299-2.241-1.311-.943.44-1.489.097-2.193-.134-.276-.31-.591-.557-.74-.465-.282-.995-.457-1.623-.731.543-1.32-.177-2.251-.911-3.216l-4.659-6.308c.282 1.145.395 1.875.644 2.555.411 1.119 1.213 2.183 1.298 3.313.12 1.6 1.088 1.914 2.27 2.089-.165 2.33 2.101 4.151.9 6.274l2.84 1.198zm50.274 43.628l-1.232-3.729-.425.099.342 2.589c-.767.618-1.777.988-1.434 2.297l1.74-1.036 1.503 3.977 1.842-.846v-2.996-2.873l-.6-.144-1.736 2.662zm-56.01-21.449c-.601.24-1.267.385-1.789.741-.84.575-1.575 1.303-2.373 1.943-1.015.814-1.939 1.889-3.1 2.334-1.527.585-2.286 1.543-2.626 3.058 3.677-2.162 7.314-4.349 9.888-8.076zm58.172-29.395c-.077.518-.305.989-.162 1.271.716 1.406 1.499 2.78 2.321 4.127.41.672.957 1.26 1.628 2.127.145-2.227-1.732-5.83-3.787-7.525zm74.322 67.787c-1.755-.187-3.101.106-3.598 1.397l2.196 3.554c.307-1.177.859-2.076.617-2.625-.479-1.089.506-1.498.785-2.326zm-83.798-35.109c-.736 2.099.631 3.083 1.167 4.351l1.672 3.944.475-.215c-1.121-2.55-1.404-5.436-3.314-8.08zm-43.196-6.095l-2.084-.404c1.019 1.074-1.551 2.533.686 3.422l1.398-3.018zm86.13-44.396l1.177 2.938.249-.004v-4.864l-.315-.094-1.111 2.024zm-89.81 55.693v-7.688c-.846 2.553-.924 5.666 0 7.688zm-34.647 56.978c-.002 1.761.315 3.245 1.335 4.828.385-1.931-.149-3.829-1.335-4.828zm81.13-57.819l1.235 5.851c-.006-1.924 1.328-4.131-1.235-5.851zm27.899-80.497l-.06.557c1.164.08 2.356-.376 3.421.677.522.517 1.165-.37 1.21-1.234h-4.571zm10.678 84.758c-.571 1.557.193 2.837 2.585 3.997l-2.585-3.997zm-34.608 2.057l.707.993 2.997-2.675-.263-.335-3.441 2.017zm-55.157-.379c-1.156-.941-1.716-2.549-3.648-3.282.911 1.876 1.783 3.135 3.648 3.282zm20.163 60.564c1.233-.76 2.307-1.694 2.861-3.094-1.442.546-2.243 1.719-2.861 3.094zm31.022-71.843c.109-2.172-.279-2.744-2.21-3.726l2.21 3.726zm-78.27 57.138l.429-.326c-.607-1.397-1.529-2.556-2.711-3.518l-.411.311 2.693 3.533zm74.743-101.874c.604-2.417.604-2.417 0-3.144v3.144zm-.408 4.023c1.143-.974 1.645-2.021 0-3.116v3.116zm14.313 3.723c.62-2.978.62-2.978.153-3.444-.505 1.011-1.326 1.896-.153 3.444zm42.946 42.717c.231-.799.916-1.561-.124-2.287-.156-.109-.699.026-.802.202-.56.952-.291 1.661.926 2.085zM201.112 196.87l3.05-1.75c-1.588.267-2.813-.069-3.05 1.75zm113.23-130.483l.772 2.272c1.237-1.549 1.208-1.642-.772-2.272zm14.092 92.708l-.5-.02c-.227.98-.589 1.979.766 3.125l-.266-3.105zm47.926-84.69c-.967 1.023-.682 2.059-.641 3.505 1.045-1.262 1.116-2.237.641-3.505zm42.843 87.316l-.665-.034-.321 2.888c1.645-.943.989-1.962.986-2.854zM312.087 66.829l.003-.615-2.601.302.072.591 2.526-.278zm63.319 131.202c.569-.826 1.254-1.661-.278-2.485l.278 2.485zm.457 6.047l-.832.211c.407.676-.311 1.804 1.524 2.229l-.692-2.44zm10.478-143.769c1.012.709 1.919.89 2.935-.549l-2.935.549zm-111.02 58.133c.598.79 1.161 1.006 1.788.31.11-.123.123-.515.018-.62-.614-.614-1.206-.564-1.806.31zm14.817-35.403c-.528 1.446-.528 1.446 1.016 1.84l-1.016-1.84zm-3.329 167.943c-.512-.367-.823-.762-1.07-.725-.309.046-.721.409-.792.706-.051.212.419.788.6.765.37-.046.702-.389 1.262-.746zm89.836-189.735h2.785c-1.19-1.07-1.918-1.321-2.785 0zM244.497 197.421l.591-.4-1.047-1.612-.432.268c.199.634-.226 1.598.888 1.744zm35.495-58.436c.909-1.426.909-1.426-.113-2.46l.113 2.46zm88.075 42.133c.102 1.168.05 1.973 1.079 2.479.715-1.221-.071-1.683-1.079-2.479zm-21.399-98.393c-.681 1.836-.681 1.836 0 2.683v-2.683zm-100.328 79.27l-.722-.253-.686 2.147.47.154.938-2.048zm124.464-90.956l.42-.416-1.052-1.208c-.264.527-.238.913-.061 1.209.122.204.455.281.693.415zm-48.477 14.926l-.496-.063-.347 2.563.472.054.371-2.554zm14.146 47.679c-.32.78-.57 1.542.725 1.808l-.725-1.808zm-100.531 68.678l.701-.14-.265-2.845-.576.052.14 2.933zm54.656-71.034l.409-.284c-.307-.785-.584-1.593-1.767-1.76l1.358 2.044zm70.342-68.366c-.974-.801-1.581-.712-2.198-.49-.064.023-.054.253-.097.49h2.295zm-37.904 70.533c-.971-.839-1.462-1.479-2.54-.543l2.54.543zm67.864 60.616l.035.624 1.486-.307-.081-.473-1.44.156zm-156.041-5.936l.569-.025-.162-1.674-.407.029v1.67zm48.154 61.3l.406-.124-.389-1.315-.423.13.406 1.309zm-39.055-81.957l-.395-.289-.725 2.17.38.143.74-2.024zm129.651-5.592l.626.201.544-1.651-.651-.208-.519 1.658zm2.072-22.449c.391-.437.667-.664.806-.957.036-.075-.374-.517-.554-.501-.239.021-.557.287-.643.521-.065.177.181.467.391.937zm-56.68-87.72l.343-.312-.816-.892-.344.301.817.903zm2.118 50.704l-.668.074.299 1.385.48-.081-.111-1.378zm42.632-11.023l-.271-.579-1.207.558c.097.189.255.552.281.542.409-.145.801-.338 1.197-.521zM236.024 204.935l.82-.165-.371-1.639-.652.121.203 1.683zm13.785-17.786l-.383.28c.267.304.533.611.815.901a2.29 2.29 0 0 0 .286-.244c-.227-.321-.474-.628-.718-.937zm-23.786 65.855l-.454-.53-1.191 1.222.416.412 1.229-1.104zM339.425 103.1l-.427-.006c-.025.369-.07.74-.05 1.107.002.043.357.068.548.101l-.071-1.202zm-67.354 10.012l.405-.349-1.149-1.269-.359.311 1.103 1.307zm67.912 5.026c-1.637-.461-1.82-.395-1.542.37l1.542-.37zm63.713 16.616l-.202-.466c-.508.252-1.027.486-1.51.779-.068.041.039.37.092.775l1.62-1.088zm-33.691 10.151c-1.141.207-1.141.207-1.104 1.166l1.104-1.166zm-128.823 29.387l.627-.164-.483-1.352-.519.173.375 1.343zm74.037-112.969c.861-.843 1.278-1.337 0-1.745v1.745zM235.28 175.256l-.247-.014-.137 1.773.384.019v-1.778zm22.394 1.059l.625-.036c-.08-.355-.157-.71-.256-1.059-.003-.011-.349.036-.352.071-.028.339-.017.682-.017 1.024zm47.787 42.804c-.262-.118-.537-.318-.61-.26-.177.14-.261.398-.382.609.191.06.407.204.566.157s.254-.288.426-.506zm44.405-132.861c-.251.267-.521.458-.491.54.092.252.298.462.46.689.157-.133.458-.285.443-.395-.034-.249-.223-.477-.412-.834zm-17.398-15.652l-.512-.347c-.147.349-.305.694-.425 1.052-.012.037.204.15.315.228l.622-.933zm-95.691 136.33c-.135.316-.269.538-.236.567.164.143.373.234.566.344l-.33-.911zM354.848 97.025l.396-.169-.484-1.14-.397.169.485 1.14zm-33.371 1.821l-.512-.179v2.3l.412.015.1-2.136zm65.624 102.536l-.539.437.889 1.005.363-.266-.713-1.176zm-67.06-95.578l.374.015.15-1.118-.601-.023.077 1.126zm22.42 7.275l.627.161c.101-.41.215-.819.277-1.235.004-.029-.375-.116-.576-.176l-.328 1.25zm-69.128 3.175c.941-.633 1.079-1.173 0-1.651v1.651zm71.131 16.794c-.174.096-.393.17-.388.223.02.212.109.417.173.625.17-.096.473-.184.48-.291.012-.178-.166-.369-.265-.557zm-74.915 12.277l.437-.426-1.108-1.027-.334.344 1.005 1.109zm33.41 46.47l-.389.114.402 1.507.454-.133-.467-1.488zm72.234-137.658l-.128-.411-1.132.285.201.577 1.059-.451zM252.764 183.76c-.18-.319-.285-.602-.48-.795-.061-.061-.363.122-.555.194l.37.963.665-.362z"/><path d="M98.619 37.82c.286.141.62.228.851.432 5.546 4.892 9.572 10.713 10.924 18.126.395 2.163.207 4.297-.659 6.351-.432 1.025-.814 2.072-1.33 3.394.788-.045 1.383-.002 1.944-.122 11.809-2.521 23.468-5.575 34.785-9.839.822-.31 1.653-.614 2.504-.822 2.423-.592 4.195.261 4.786 2.697.403 1.66.488 3.514.212 5.198-.852 5.2-3.055 9.863-5.942 14.276-1.56 2.385-3.663 2.973-6.23 3.184-1.886.155-3.265-.383-4.313-1.922-.159-.233-.465-.366-.903-.695l-.888 3.518c1.629.309 1.629.309 1.605-1.47l3.527 3.371c-.936.225-1.579.434-2.238.527-1.892.267-3.786.528-5.688.699-.481.043-.985-.296-1.492-.385-.375-.066-.77-.013-1.241-.013-.026-1.244 2.168-1.779 1.106-3.569-1.061 1.123-2.355.939-3.692.976-2.103.058-4.196.477-6.273 1.074h8.111c-.205 2.137-.331 2.329-2.183 2.463l-21.536 1.513-6.94.477c-.998.045-1.628.459-2.112 1.294-.72 1.242-1.501 2.448-2.346 3.814l-1.41-.892c-.152.52-.457 1.008-.325 1.204.916 1.37.089 2.292-.62 3.375-1.241 1.894-2.32 3.895-3.489 5.838L66.218 136.62c-.466.773-.698 1.928-1.898 1.415l-2.599 5.897-.56-.141.263-3.7-.437-.064-1.257 4.603c-.748-1.91.201-3.207.383-4.58.199-1.504.296-3.022.503-4.525.202-1.459.488-2.905.788-4.656 1.459 1.575.146 2.808.094 4.027-.055 1.288-.79 2.546-.117 4.185 1.173-1.314.361-2.781.839-3.979.466-1.167.633-2.453.958-3.794 2.364-.445 2.641-2.541 3.244-4.391.265-.815.518-1.636.721-2.467.128-.523.313-1.111.192-1.6-.345-1.391-.718-2.799-1.299-4.102s-1.297-2.507-.248-4.088c-2.43.03-1.009 2.645-2.701 3.016-.381-3.84 1.85-7.503 1.022-11.453-1.307.043-2.04.542-1.459 1.602.621 1.132.35 2.114.175 3.221-.389 2.474-1.246 4.857-1.162 7.44.033 1.019-.078 2.141-.938 3.25-.74.955-.347 2.79-.45 4.237-.093 1.31.127 2.702-1.087 3.784.843 1.013.806 2.091.584 3.361-.712 4.074-1.267 8.177-1.781 12.282-.183 1.463-.099 2.962-.097 4.444.003 2.026-1.017 3.645-2.068 5.423l-.741-.787c-.25.514-.566.936-.664 1.403-.645 3.064-1.84 5.904-3.135 8.748-1.952 4.286-3.629 8.697-5.435 13.05-.254.611-.579 1.192-1.06 2.168l-1.275-1.833c-1.862-.143-3.324.488-4.41 2.15-.845 1.293-1.9 2.448-2.973 3.804.383.521.807.31 1.43-.055 2.056-1.204 4.164-2.32 6.266-3.445.185-.099.468-.013.9-.013-.026.548-.021 1.062-.081 1.568-.232 1.979-.685 3.955-.683 5.932.002 3.115 1.528 4.615 4.63 5.066 3.096.45 5.924-.335 8.379-2.142 1.791-1.317 3.443-2.865 4.974-4.484 3.35-3.54 5.975-7.615 8.406-11.828 4.408-7.637 7.805-15.737 11.014-23.92l10.992-28.395c1.628-4.167 3.242-8.348 6.041-11.942.385-.494.408-1.335.445-2.024.213-3.966 1.24-7.729 2.837-11.336 1.225-2.768 3.198-4.737 6.242-5.494 3.734-.929 7.175 1.494 7.511 5.328.166 1.897-.397 3.631-1.14 5.334-.511 1.17-1.065 2.33-1.465 3.539-1.017 3.075-.5 5.917 1.844 8.179 1.717 1.658 3.593 3.187 5.557 4.544l15.112 10.132c1.825 1.211 3.259 2.759 4.372 4.52-1.169 1.993-3.053 1.141-4.56 1.443l-1.825 2.646c1.867 1.123 4.854.639 5.736 3.569.9-.754 1.632-1.01 2.465-.312.826.693.743 1.505.538 2.396-.846 3.689-2.344 7.128-4.186 10.401l-10.846 18.939c-2.382 4.25-4.587 8.598-6.878 12.9-.107.201-.271.371-.469.637-.376-1.471-1.767-.596-2.545-1.647l-.448 2.024 2.448 1.386c-.149.857-.31 1.557-.388 2.266-.302 2.753.49 3.538 3.204 3.213 3.024-.361 5.788-1.497 8.013-3.504 2.839-2.561 5.648-5.217 8.078-8.156 5.078-6.142 8.724-13.179 11.955-20.434.584-1.311 1.162-2.649 1.945-3.842.736-1.12 1.547-2.485 2.667-2.998 2.291-1.049 2.845-2.982 3.539-5.025 3.794-11.166 9.809-20.935 18.517-28.954 1.789-1.647 3.768-3.087 5.663-4.625.769 1.109.769 1.109.383 2.664 3.002 1.668 3.478 5.37 5.585 7.842l.499-.316-.923-1.778c-.415-.772-.945-1.5-1.243-2.313-.592-1.616-1.25-3.12-2.378-4.502-1.297-1.589-1.009-2.336.678-3.494 9.076-6.231 19.165-9.389 30.122-9.831 4.639-.187 9.28-.194 13.835.939.447.111.874.304 1.508.529-.897 1.627-1.605 3.198-1.195 5.003.063.278-.058.627-.174.911l-2.235 5.399c-.301.79-.714 1.217-1.576 1.104-4.662-.611-8.374 1.53-11.897 4.154-4.979 3.708-9.129 8.243-12.942 13.107l-2.048 2.604-3.221-2.863-.47.456 2.986 3.432c-3.867 5.587-7.407 11.25-10.5 17.606 7.636 1.05 14.602-.118 21.817-3.12l-1.21 3.452c1.11.102 3.023-.911 3.26-1.98.484-2.183 1.829-3.52 3.617-4.792 7.395-5.26 12.582-12.16 14.726-21.093.403-1.679.308-3.484.39-5.233.08-1.729-.047-3.48.196-5.182.115-.808.374-1.459-.205-2.176-.155-.193-.157-.691-.016-.911.947-1.476.394-3.559 1.952-4.785.145-.114.261-.465.194-.62-.714-1.656.987-2.25 1.348-3.59 3.466 1.529 6.227 3.65 8.149 6.69 1.063 1.681.67 3.656.33 5.514-.209 1.143-.275 1.131.637 2.471l1.363-1.829c.818 2.917.642 5.544.256 8.107-.523 3.481-1.559 6.843-3.049 10.061-.455.982-1.263 1.703-1.53 2.874-.271 1.185-1.201 2.231-1.894 3.305a53.09 53.09 0 0 1-2.06 2.949c-.717.961-1.464 1.902-2.242 2.814-.829.974-1.685 1.928-2.575 2.846-.832.858-1.723 1.658-2.671 2.562l-1.444-.71c-.077.271-.254.548-.178.688.417.768.2 1.286-.405 1.88-4.426 4.341-14.734 9.265-21.624 10.195.132-1.612-.377-3.25 1.798-4.09.579-.224.867-1.423 1.11-2.228.207-.685.156-1.447.251-2.538l-2.984 3.535c-1.835-.633-3.09.118-3.801 2.159l1.556.22c-.144.831-.208 1.62-.427 2.363-.264.894-.849 1.525-1.854 1.642-1.269.148-2.539.462-3.803.439-4.15-.077-8.297-.276-12.446-.423-.471-.017-.944-.002-1.582-.002-1.578 4.713-2.877 9.457-2.931 14.474-.01.945-.281 1.915-.133 2.825.15.923-.17 2.043.794 2.747.063.046.134.105.16.174 2.034 5.221 6.261 6.659 11.363 6.606.228-.002.457.111.726.181l.273 4.048c-1.834 1.227-1.019 3.691-1.481 5.781-.197.892-.297 1.805-.46 2.823-6.585-.202-12.651-1.181-18.206-4.312l.365-2.512-.541-.241-1.349 1.898c-8.057-5.415-12.826-13.056-15.048-22.989l-1.46 2.153c-3.666 5.753-7.729 11.187-12.804 15.794-3.266 2.966-6.672 5.8-10.736 7.578-3.274 1.433-6.551 3.327-10.403 2.114-1.328 1.006-2.857.692-4.326.603-1.569-.095-2.907-.662-3.668-2.649l-.186 1.668c-.449-.074-.918-.068-1.321-.229-3.377-1.35-5.555-3.947-7.219-7.053-1.773-3.31-2.539-6.926-2.715-10.607-.152-3.18.112-6.384.298-9.572.033-.564.585-1.097 1.023-1.866-1.02-.855-.622-2.259-.39-3.607 1.274-7.405 2.981-14.707 5.421-21.821l4.637-13.108c.487-1.426.846-2.919 1.054-4.411.249-1.786-.065-3.573-1.224-4.997-1.605-1.972-3.366-3.817-5.288-5.971-.652.944-1.23 1.583-1.585 2.328-2.062 4.321-4.302 8.577-6.05 13.024-3.507 8.923-6.73 17.958-10.088 26.94-.304.813-.74 1.576-1.129 2.372l-2.202-2.403c-.02 2.039.401 2.421 2.248 2.359-3.343 9.037-7.533 17.627-13.465 25.281-3.266 4.214-7.162 7.742-11.745 10.49-2.177 1.305-2.182 1.296-4-.32-1.29.446-.167 1.593-.749 2.412-1.848 1.106-4.094 1.307-6.283 1.659-.353.057-.795-.327-1.172-.548-.516-.302-1.008-.644-1.969-1.264l.722 1.871c-3.215.401-6.332.124-9.421-.702-4.405-1.179-7.689-3.777-9.899-7.766-1.973-3.562-2.954-7.406-3.319-11.428-.679-7.48.193-14.842 1.701-22.159 3.776-18.323 10.117-35.814 17.246-53.043 2.567-6.203 5.346-12.317 8.026-18.473l1.049-2.494c-3.102.372-5.848.78-8.61 1.014-4.103.347-8.047 1.627-12.129 2.002-1.711.157-3.54.083-5.187-.361-2.369-.638-3.046-2.575-1.803-4.689.593-1.008 1.395-2.034 2.359-2.651 1.872-1.2 3.925-2.116 5.901-3.155.821-.432 1.166-.033 1.377.856l-1.555.825.557 2.837.386.055 2.016-5.225h2.02l.759-1.535 2.299.592c.205-1.616 1.252-2.227 2.633-2.591l15.269-4.096c1.221-.307 1.931-.83 2.463-1.938 1.623-3.387 3.338-6.729 5.094-10.243l1.203.674c-1.16 1.617-1.191 1.744-1.697 7.091 1.056-2.01 2.994-2.984 2.811-5.46-.142-1.933.706-3.929-.071-6.217 1.509-1.043.693-4.021 3.149-5.073.13-.64.123-1.516.479-2.203l7.379-13.995c2.499-5.027 6.651-5.802 11.257-3.894 2.282.945 4.48 2.123 6.082 4.122-1.067.268-1.067.268-.734 1.329.715-.231.979-.665.688-1.383zm122.238 112.829l-.471-.415-5.644 6.862c2.945-1.366 4.789-3.682 6.115-6.447zm-105.95-10.986l.538.098c.399-1.331 1.964-2.111 1.627-4.157l-2.369 2.205-.51-1.826-.38.281 1.094 3.399zm75.128-19.272c.832.991 1.502 1.717 2.086 2.505.77 1.038 1.12 1.331 2.297 1.679l-2.961-4.884-1.422.7zm-61.071 21.956c-1.43 1.891-2.175 4.018-2.176 6.403 1.264-1.949 1.996-4.081 2.176-6.403zm66.192-28.955c1.082.23 1.383.068 1.368-.961-.021-1.428-.934-2.38-1.932-3.344l.564 4.305zM60.338 198.281c2.685-1.642 2.685-1.642 1.92-3.692-1.629.721-1.182 2.505-1.92 3.692zm6.542-112.11c-2.123.866-2.42 1.407-2.03 3.905l1.385-.518-.908-1.262c.774-.634 2.41-.552 1.553-2.125zm-10.822 59.386l.572.081c.747-1.889.92-3.724.316-5.711l-.888 5.63zm118.697 48.545l-.588-.573c-.68 1.303-3.177.993-2.67 3.539l3.258-2.966zm-8.362-54.185c.816.842 1.432 1.534 2.119 2.147.171.152.733.169.829.038.188-.256.347-.761.215-.986-.639-1.093-1.479-1.889-3.163-1.199zm-47.27 38.426c1.19-1.165.73-2.417.708-3.981l-1.979 1.837 1.271 2.144zM72.386 64.017c-1.269 1.738-1.596 3.875-.775 5.517l.775-5.517zm47.431 75.166l.56.377c1.385-.847 2.048-2.099 2.051-4.308l-2.611 3.931zm-78.942 58.591c.948 1.045 1.517 1.944 2.856 2.247l-.537-2.907-2.319.66zm19.881-85.201l-1.995 3.497c2.14-.734 2.717-1.715 1.995-3.497zm-2.173 78.272l-.366.437c.831 1.508 1.566 2.017 3.13 1.827l-2.764-2.264zm16.703-9.23c.84-1.885.445-3.198-.409-4.487l.409 4.487zm-9.421-87.606c.276-1.29.997-2.173.091-3.133.043.956-1.503 1.711-.091 3.133zm54.957 55.947l-.372-.349-2.161 1.092 1.722 1.27.811-2.013zm55.894 31.147c-1.302 1.066-.159 2.133-.186 3.725 1.129-1.592.003-2.659.186-3.725zM67.952 94.786c-1.13 1.441-1.18 1.799-.359 3.132l.359-3.132zm-34.263 72.998l-1.288-1.712-1.269 1.712h2.557zm84.785-34.826l-1.183 2.045 1.507.528-.324-2.573zm-29.457 17.473l.585.213 1.028-2.391-.569-.24-1.044 2.418zm136.246-6.255c-.751.479-1.398 1.041-1.12 2.215 1.148-.441 1.111-1.332 1.12-2.215zm-28.56-23.104c-.34 1.525-.34 1.525 1.785 1.191l-1.785-1.191zM72.38 63.144l.379-2.271c-1.504.542-1.116 1.135-.379 2.271zm94.602 126.32l.519.114c.507-.604.902-1.233.007-2.539l-.526 2.425zm-21.112-8.165l.576-.084-.157-1.609-.42.048.001 1.645zm-25.601-11.387c-.69.662-1.342 1.114-.196 2.058.232-.515.451-.899.565-1.312.041-.147-.171-.365-.369-.746zm1.232-9.51l.78.15.472-2-.534-.167-.718 2.017zm28.462 9.998v1.694c1.167-.615 1.081-1.127 0-1.694zm-87.539 21.598c.675 1.509 1.244 1.719 2.323.471l-2.323-.471zm56.248 8.726c1.014-.705 1.014-.705.89-2.79l-.89 2.79zm83.032-77.686l-1.991-1.023c.392.813.791 1.615 1.991 1.023zm-28.114 61.01l.499.223.542-1.525-.357-.151-.684 1.453zm65.157-59.935c.62-.78.796-1.417-.469-1.764l.469 1.764zm-113.73 40.42l-.768-.364c-.139.422-.282.842-.398 1.27-.004.016.361.185.392.148.278-.334.521-.699.774-1.054zm104.973-25.956l.414.329.966-1.482-.332-.165-1.048 1.318zm-59.412 60.602l-.499-.183c-.403.389-.974.717-.159 1.922l.658-1.739zm55.386-48.245l.645-.125-.366-1.544-.449.075.17 1.594zm-76.927-92.271l.173-.646-1.362-.209-.092.44 1.281.415zm47.855 68.113c-.094-.008-.181-.041-.235-.012s-.111.13-.097.18c.109.395.235.785.356 1.177l.303-.091-.327-1.254zm-18.36 1.415c1.428-.126 1.789-.547 1.756-.593l-1.756.593zM131.91 81.517c.888.656.888.656 1.619-.127l-1.619.127zm36.483 67.443l-.336-.542c-.23-.134-.503-.414-.678-.363-.207.061-.475.427-.45.627s.363.472.594.506c.273.04.578-.142.87-.228zM67.259 74.382c-.56 1.415.212 1.499 1.441 1.897l-1.441-1.897zm78.345-5.757c-.263-.225-.437-.459-.662-.531-.111-.035-.474.299-.454.344.109.24.28.47.486.633.045.035.32-.222.63-.446zm41.68 46.63l-.377.407.927.794.288-.305-.838-.896zm-9.222 22.473l-.161-.577c-.373.141-.749.277-1.113.439-.014.006.104.389.126.385.386-.062.767-.158 1.148-.247zm-13.677 6.88l-.488-.308-.618 1.109.317.206.789-1.007zm-9.373 32.06l.101-.439-1.114-.181c-.022.146-.073.418-.062.421.355.082.715.138 1.075.199zm-7.305.253l-.272-.122-.466.949c.122.022.335.092.352.06.148-.286.262-.589.386-.887zm276.473-112.5l2.68-.8c-.198.964-.787 2.252-.466 2.546 1.284 1.177 1.176 3.238 2.676 4.102.9.518 2.036.626 3.029.908l1.45 3.406c.535 1.115.615 2.113-.289 3.082-.686.735-1.675 1.45-.5 2.564-1.139 1.558.681 3.391-.62 5.07-1.688 2.178-2.818 4.811-5.491 6.218l-2.165-1.292c-.349.755-.998 1.482-.852 1.973.429 1.439-.557 1.632-1.409 1.959-8.472 3.257-18.206-.619-22.133-8.646-1.811-3.7-2.285-7.367-1.672-11.328 1.284-8.296 8.273-14.51 16.642-14.773 2.417-.076 4.771.155 7.064.99.941.343 1.421.775 1.417 1.881-.003.781.453 1.562.639 2.14zm-10.538 10.581l.686 4.761c.199 1.248 1.29.39 1.674.589.257 1.009.212 2.074.721 2.577 1.21 1.196 1.776 2.576 1.867 4.265l2.944-.381c.186-1.925.097-3.506-1.338-5.083-1.095-1.202-2.465-2.758-1.361-4.96-.982.746-1.807 1.013-2.651-.015v-2.472l-2.542.719zm-3.409-8.044l2.971 4.81c1.12-.515 1.021-1.748.688-2.676-.36-1.005-.528-1.759.804-2.548l-4.463.414zm11.99 21.273c.755 1.381 1.61.942 2.685.835l-1.18-2.197-1.505 1.362zm-13.157-19.556c-1.38-2.361-1.664-2.45-2.827-1.168l2.827 1.168zm6.162 15.501l-.507.09.382 1.754.375-.065-.25-1.779zm3.056-16.965l.573-.117-.31-1.207-.418.082.155 1.242zm-15.906 15.686l-.335.193.365 1.085.692-.418-.722-.86zm12.352-.066l.167-.062-.081-1.401-.444.069.358 1.394zm2.141-11.966l.5.077.39-2.045-.625-.094-.265 2.062zm-277.4 10.644l3.075-.148c-1.525 1.676-1.525 1.676-3.075.148zm200.363 91.988v-3.451c.927 1.943.927 1.943 0 3.451zm-147.021 22.619v-1.646c1.382.671 1.382.671 0 1.646zm111.333-37.748c.203.363.357.574.434.81.027.083-.132.228-.205.344-.227-.152-.474-.285-.66-.477-.031-.033.2-.32.431-.677z"/></g><path d="M31.079 243.211v-17.572h7.499c3.341 0 5.742 3.02 5.742 5.939 0 3.069-2.252 5.965-5.618 5.965h-3.564v5.668h-4.059zm4.059-9.207h3.317c.94 0 1.757-.842 1.757-2.426 0-1.633-.965-2.376-1.906-2.376h-3.168v4.802zm22.55.619v-8.984h4.059v8.984c0 4.851-2.376 8.736-7.796 8.736-5.618 0-7.796-4.133-7.796-8.736v-8.984h4.059v8.984c0 2.673.99 5.123 3.737 5.123 2.796.001 3.737-2.524 3.737-5.123zm15.743 8.588h-8.563v-17.572h9.776c2.475 0 4.01 2.276 4.01 4.504 0 1.659-.866 3.317-2.524 4.06 2.004.594 3.267 2.128 3.267 4.504-.001 3.019-2.699 4.504-5.966 4.504zm-4.504-14.107v3.639h3.984c.891 0 1.708-.595 1.708-1.832 0-1.163-.693-1.807-1.56-1.807h-4.132zm4.677 6.831h-4.677v3.836h4.504c1.04 0 1.832-.767 1.832-1.881 0-1.089-.694-1.955-1.659-1.955zm25.199 7.276l-1.163-1.213c-1.436.966-3.119 1.46-4.777 1.46-3.836 0-6.039-2.647-6.039-5.396 0-2.104 1.287-3.588 2.772-4.702-1.213-1.436-1.658-2.352-1.658-3.589 0-2.697 2.128-4.355 4.975-4.355 2.475 0 4.9 1.262 4.9 4.034 0 1.855-1.114 3.267-2.673 4.455l2.747 2.92c.421-.989.693-2.178.693-3.539h3.217c-.025 2.426-.619 4.405-1.584 5.965l3.787 3.96h-5.197zm-3.292-3.514l-3.489-3.712c-.867.644-1.386 1.287-1.386 2.104 0 1.064.94 2.276 2.648 2.276.742 0 1.509-.223 2.227-.668zm-2.846-8.366c1.015-.644 1.51-1.114 1.51-1.832s-.52-1.188-1.262-1.188c-.841 0-1.386.569-1.386 1.312-.001.52.296.842 1.138 1.708zm27.376 11.88h-8.563v-17.572h9.776c2.475 0 4.01 2.276 4.01 4.504 0 1.659-.866 3.317-2.524 4.06 2.004.594 3.267 2.128 3.267 4.504-.002 3.019-2.699 4.504-5.966 4.504zm-4.505-14.107v3.639h3.985c.891 0 1.708-.595 1.708-1.832 0-1.163-.693-1.807-1.56-1.807h-4.133zm4.678 6.831h-4.678v3.836h4.505c1.039 0 1.831-.767 1.831-1.881 0-1.089-.693-1.955-1.658-1.955zm8.195 7.276v-17.572h4.059v17.572h-4.059zm17.994-12.424c-.248-.272-2.599-1.683-4.702-1.683-1.386 0-2.153.495-2.153 1.46 0 1.188 1.312 1.51 3.663 2.153 3.366.916 5.494 2.055 5.494 5.321 0 3.985-3.217 5.371-6.608 5.371-2.574 0-5.42-.817-7.5-2.179l1.782-3.539c.322.347 3.094 2.055 5.792 2.055 1.46 0 2.153-.471 2.153-1.312 0-1.312-1.807-1.634-4.232-2.376-3.242-.99-4.752-2.203-4.752-4.852 0-3.713 2.97-5.717 6.484-5.717 2.5 0 4.802 1.015 6.336 1.93l-1.757 3.368zm18.021-1.584h-5.346v14.009h-4.059v-14.009h-5.371v-3.563h14.776v3.563zm2.007 14.008v-17.572h7.92c3.316 0 5.742 3.02 5.742 5.939 0 2.153-1.114 4.134-2.871 5.099l4.035 6.534h-4.579l-3.539-5.668h-2.648v5.668h-4.06zm4.059-9.207h3.712c.965 0 1.757-1.015 1.757-2.426 0-1.436-.965-2.376-1.881-2.376h-3.588v4.802zm11.536.397c0-4.653 3.564-8.861 8.44-8.861 5.024 0 8.34 4.48 8.34 8.936 0 4.628-3.539 8.885-8.415 8.885-4.999-.001-8.365-4.431-8.365-8.96zm8.415 5.346c2.821 0 4.232-2.723 4.232-5.346 0-2.723-1.535-5.247-4.257-5.247-2.821 0-4.257 2.648-4.257 5.296 0 2.698 1.51 5.297 4.282 5.297z" fill="#e32327"/></svg>